<svg xmlns="http://www.w3.org/2000/svg" xmlns:xlink="http://www.w3.org/1999/xlink" viewBox="0 0 260 134">
  <defs/>
  <defs>
    <path id="a" d="M0 95.59l32.32 23.53c.45.32 1 .71 1.59 1.12 1.42 1.01 3.13 1.94 4.97 1.93.15 0 .3-.01.45-.02 1.06-.09 2.3-.51 3.31-1.68 1.02-1.16 1.93-3.22 1.94-6.9v-.25c-.04-3.66-1.26-6.92-2.73-9.5-1.46-2.57-3.19-4.44-4.04-5.2-.81-.74-1.73-1.46-2.13-1.76-.13-.1-.21-.15-.2-.15l-7.59-5.54L0 70.88v24.71zm55.28 12.92v24.72l51.71-37.64V70.87l-51.71 37.64zM0 66.47l25.92 18.86 4.07 2.96 1.32.96c.38.28 1.43 1.04 2.7 1.94 1.49 1.05 3.11 2.03 4.9 2.01.14 0 .28-.01.42-.01 1.06-.09 2.3-.52 3.31-1.68 1.02-1.16 1.93-3.21 1.94-6.9v-.24c-.04-3.66-1.26-6.92-2.73-9.5-1.46-2.56-3.19-4.44-4.04-5.2-.81-.73-1.73-1.45-2.13-1.76-.13-.1-.21-.15-.2-.15l-2.55-1.87L0 41.91v24.56zm55.28 13.07v24.56l51.71-37.63V41.91L55.28 79.54zM21.13 24.32L1.52 38.6 35.04 63l2.56 1.88c.03.02 1.36 1 2.61 2.13 1.15 1.04 3.05 3.12 4.74 6.08 1.69 2.95 3.15 6.79 3.19 11.23v.28c.01 4.27-1.09 7.28-2.81 9.25-1.35 1.55-3 2.36-4.52 2.71 1.14 1.15 2.71 3.01 4.14 5.5 1.69 2.95 3.15 6.79 3.19 11.23v.28c.01 4.27-1.09 7.28-2.81 9.25-1.28 1.47-2.83 2.28-4.28 2.65l10.66 7.76v-54.6c0-.57.27-1.11.73-1.44l53.03-38.59-19.61-14.28H21.13zm4.9-3.57h54.92L53.49.77 26.03 20.75z"/>
  </defs>
  <clipPath id="b">
    <use overflow="visible" xlink:href="#a"/>
  </clipPath>
  <g clip-path="url(#b)">
    <defs>
      <path id="c" d="M-31.4-14.51h170.13v165.23H-31.4z" transform="rotate(-53 53.66806146 68.1125906)"/>
    </defs>
    <clipPath id="d">
      <use overflow="visible" xlink:href="#c"/>
    </clipPath>
    <linearGradient id="e" x1="-3765.2036" x2="-3764.2036" y1="-4333.5439" y2="-4333.5439" gradientTransform="rotate(-53 268607.7730153 -647690.54029108) scale(108.9954)" gradientUnits="userSpaceOnUse">
      <stop offset="0" stop-color="#0c1365"/>
      <stop offset=".0766" stop-color="#0d1e6d"/>
      <stop offset=".5109" stop-color="#0f5a95"/>
      <stop offset=".831" stop-color="#117fae"/>
      <stop offset="1" stop-color="#128db7"/>
    </linearGradient>
    <path fill="url(#e)" d="M-63.51 86.33L38.88-49.55l131.97 99.44-102.4 135.88z" clip-path="url(#d)"/>
  </g>
  <path fill="#1c2f75" d="M143.37 61.24c1.1-.98 1.67-2.45 1.67-4.38.01-3-1.77-4.32-3.49-4.86 1.5-.63 2.58-1.9 2.57-3.94 0-1.68-.56-2.94-1.52-3.75-.96-.82-2.3-1.2-3.86-1.2h-7.19V62.7h7.06c2.06 0 3.67-.48 4.76-1.46m-9.42-15.93h4.72c1.06 0 1.82.29 2.32.78.5.49.74 1.2.75 2.06 0 .82-.23 1.56-.74 2.09-.51.53-1.31.87-2.49.87h-4.56v-5.8zm0 7.97h4.7c1.24 0 2.24.34 2.92.96.69.63 1.08 1.54 1.08 2.73 0 1.09-.27 1.97-.88 2.57-.61.61-1.58.96-3.01.96h-4.8l-.01-7.22zm57.08-5.08c.25.77 6.1 15.19 6.1 15.19s5.96-14.45 6.22-15.21V62.7h2.3V43.11h-2.54s-5.61 14.15-5.92 15.07c-.29-.91-5.87-15.07-5.87-15.07h-2.6V62.7h2.31V48.2zM152 70.99l-6.8 19.59h2.46l1.69-4.92h7.82l1.66 4.92h2.52l-6.8-19.59H152zm-1.91 12.47s2.93-8.72 3.18-9.6c.25.9 3.16 9.6 3.16 9.6h-6.34zm-6.69-11.03c-1.13-.98-2.7-1.44-4.48-1.44h-7.36v19.59h2.39v-7.61h4.59c1.96 0 3.62-.54 4.81-1.57 1.18-1.03 1.86-2.57 1.86-4.51 0-1.99-.68-3.48-1.81-4.46m-1.62 7.38c-.69.63-1.75.97-3.22.97h-4.61v-7.59h4.89c1.31 0 2.3.35 2.96.98.66.64 1.01 1.58 1.01 2.8 0 1.26-.34 2.21-1.03 2.84m116.99 2.06c-.89-.94-2.31-1.69-4.46-2.47-1.93-.69-3.07-1.26-3.71-1.84-.64-.58-.8-1.16-.81-1.94 0-.74.26-1.41.84-1.91s1.49-.83 2.8-.83c1.91 0 3.17.62 4.57 1.77l.09.07 1.53-1.87-.1-.07c-1.64-1.31-3.34-2.1-5.96-2.1-1.83 0-3.37.47-4.46 1.34-1.09.87-1.71 2.15-1.71 3.73 0 1.41.36 2.49 1.25 3.39.9.9 2.31 1.61 4.41 2.36 1.76.64 2.91 1.21 3.6 1.83.68.62.94 1.28.94 2.15 0 1.98-1.52 3.19-4.06 3.2-1.95 0-3.61-.89-5.06-2.29l-.09-.08-1.6 1.78.08.08c1.54 1.57 3.93 2.72 6.58 2.72 2.04 0 3.68-.6 4.8-1.59s1.74-2.37 1.73-3.93c.03-1.45-.31-2.57-1.2-3.5m-41.33-.64h7.79v-2.2h-7.79v-5.85h9.54v-2.2h-11.93v19.59h12.34v-2.2h-9.96v-7.14h.01zm27.07-4.65c0-1.89-.67-3.3-1.78-4.23-1.11-.92-2.64-1.36-4.36-1.36h-7.78v19.59h2.39v-8.24h4.4l4.15 8.24h2.75L240 82.13c2.72-.62 4.52-2.54 4.51-5.55m-3.39 2.72c-.66.57-1.69.87-3.11.87h-5.03v-6.98h5.3c1.27 0 2.22.3 2.86.87s.97 1.44.98 2.6c0 1.2-.33 2.06-1 2.64m-32.54 7.26c-.33-.6-9.58-15.57-9.58-15.57h-2.28v19.59h2.3V75.26c.33.61 9.67 15.32 9.67 15.32h2.2V70.99h-2.31v15.57zm-30.27-9.98c0-1.89-.67-3.3-1.78-4.23-1.11-.92-2.65-1.36-4.37-1.36h-7.78v19.59h2.39v-8.24h4.4l4.15 8.24h2.75l-4.28-8.45c2.73-.62 4.52-2.54 4.52-5.55m-3.39 2.72c-.67.57-1.7.87-3.12.87h-5.03v-6.98h5.3c1.27 0 2.23.3 2.87.87s.97 1.44.97 2.6c.01 1.2-.33 2.06-.99 2.64m5.03-6.11h5.7v17.39h2.39V73.19h5.7v-2.2h-13.78l-.01 2.2zM151.64 62.7h2.39v-9.01h7.58v-2.2h-7.58v-6.18h9.21v-2.2h-11.6V62.7zm23.79-19.59h-2.54l-6.8 19.59h2.46l1.69-4.92h7.83l1.66 4.92h2.52l-6.82-19.59zm-4.46 12.47s2.93-8.72 3.18-9.6c.25.9 3.16 9.6 3.16 9.6h-6.34z"/>
</svg>